<svg width="160" height="160" viewBox="0 0 160 160" xmlns="http://www.w3.org/2000/svg"><g fill="none"><path d="M160 80c0-44.183-35.817-80-80-80s-80 35.817-80 80 35.817 80 80 80 80-35.817 80-80" fill="#7AC3EB"/><path d="M137.885 80.308c-4.942-13.458-18.809-1.833-56.741-1.833-39.246 0-53.134-11.445-57.073 2.663 1.123 5.819 10.22 13.82 57.073 13.82 40.434 0 56.741-9.466 56.741-14.65" fill="#1A1918"/><path d="M119.076 84l-1.564-34.236c-1.825-20.076-20.769-22.764-35.109-22.764h-2.572c-14.341 0-33.499 2.166-36.368 22.503l-1.529 34.497h77.142" fill="#1A1918"/><path d="M32.277 74.151c23.013 6.513 50 4.32 50 4.32-17.681.208-33.561-2.404-39.938-3.617l-.003.066c-4.115-.594-7.42-.962-10.059-.769" fill="#fff"/><path d="M29 120h93c2.898-.005 5.782-.653 8.072-2.195 1.14-.771 2.125-1.781 2.814-3.03.691-1.248 1.071-2.723 1.069-4.351.002-2.65-.936-5.024-2.53-6.73-1.589-1.709-3.844-2.737-6.318-2.733-2.762-.002-5.726 1.265-8.396 3.942-.586.585-.586 1.535 0 2.121.586.586 1.535.586 2.121 0 2.245-2.238 4.439-3.061 6.275-3.063 1.652.004 3.07.657 4.125 1.78 1.048 1.125 1.721 2.733 1.723 4.683-.002 1.174-.261 2.109-.696 2.901-.652 1.181-1.748 2.088-3.201 2.721-1.447.631-3.228.956-5.058.954h-93c-.828 0-1.5.672-1.5 1.5s.672 1.5 1.5 1.5" fill="#1A1918"/><path d="M122 121h-3c-1.381 0-2.5-1.119-2.5-2.5s1.119-2.5 2.5-2.5h3c3.831 0 7.955-1.901 7.955-6.076 0-2.301-1.121-4.194-2.927-4.942-2.209-.915-5.009.02-7.489 2.499-.977.976-2.559.976-3.535 0-.977-.976-.977-2.559 0-3.536 3.96-3.958 8.797-5.298 12.938-3.582 3.709 1.536 6.013 5.2 6.013 9.561 0 7.271-6.517 11.076-12.955 11.076" fill="#1A1918"/><path d="M34.24 117.837c21.101-3.678 32.631-4.792 46.76-4.792 7.069 0 10.625 1.746 13.393 2.682 1.502.136 2.555-.069 4.475.236 2.481-.092 12.245-3.84 12.245-3.84s.821 2.036.386 5.448l-77.259.266" fill="#1A1918"/><path d="M34.24 119.41c21.101 3.678 32.631 4.792 46.76 4.792 7.069 0 10.625-1.746 13.393-2.682 1.502-.136 2.555.069 4.475-.236 2.481.092 12.245 3.84 12.245 3.84s.821-2.036.386-5.448l-77.259-.266" fill="#1A1918"/><path d="M120 116h3v5h-3v-5z" fill="#fff"/></g></svg>