<?xml version="1.0" encoding="UTF-8" standalone="no"?>
<svg width="173px" height="48px" viewBox="0 0 173 48" version="1.1" xmlns="http://www.w3.org/2000/svg" xmlns:xlink="http://www.w3.org/1999/xlink">
    <defs></defs>
    <g id="Page-1" stroke="none" stroke-width="1" fill="none" fill-rule="evenodd">
        <g id="hicks_logo">
            <g id="swirl" transform="translate(0.734615, 0.000000)" fill="#DBAF00">
                <path d="M32.7146748,0.0401032609 C27.0041227,0.0401032609 22.2942331,4.05068478 21.5308466,9.2552962 C23.7902331,9.50830435 25.9417791,10.0992527 27.9247485,10.9737337 C27.9205644,10.8946766 27.9121963,10.8170245 27.9121963,10.7373288 C27.9121963,8.22742663 30.0622577,6.19212228 32.7146748,6.19212228 C35.367227,6.19212228 37.5171534,8.22742663 37.5171534,10.7373288 C37.5171534,13.2473587 35.367227,15.2825353 32.7146748,15.2825353 C31.2649693,15.2825353 30.1702331,14.5328342 30.1702331,14.5328342 C27.0406994,12.3847554 23.192454,11.1144783 19.0313497,11.1144783 C8.53923926,11.1144783 0.0344171779,19.1623342 0.0344171779,29.0913397 C0.0344171779,39.0183016 8.53923926,47.0661576 19.0313497,47.0661576 C29.5219755,47.0661576 38.0281472,39.0183016 38.0281472,29.0913397 C38.0281472,26.9312554 37.6239141,24.8622337 36.8871166,22.9439185 C35.5721104,23.3462283 34.1715337,23.5660299 32.7146748,23.5660299 C31.7183313,23.5660299 30.7499264,23.4584918 29.8137791,23.2652554 C30.8537178,24.9843315 31.455816,26.9684212 31.455816,29.0913397 C31.455816,35.583981 25.894135,40.8469592 19.0313497,40.8469592 C12.1699141,40.8469592 6.60674847,35.583981 6.60674847,29.0913397 C6.60674847,22.5966549 12.1699141,17.333038 19.0313497,17.333038 C21.7708221,17.333038 24.2955583,18.182231 26.3488466,19.6032147 C28.173227,20.7526712 30.3597301,21.4353207 32.7146748,21.4353207 C38.9586258,21.4353207 44.0207853,16.645663 44.0207853,10.7373288 C44.0207853,4.82899457 38.9586258,0.0401032609 32.7146748,0.0401032609 Z" id="Fill-1"></path>
                <path d="M19.0313497,21.5115679 C14.6075951,21.5115679 11.021865,24.9054022 11.021865,29.0913397 C11.021865,33.2758723 14.6075951,36.6690679 19.0313497,36.6690679 C23.4548344,36.6690679 27.0406994,33.2758723 27.0406994,29.0913397 C27.0406994,24.9054022 23.4548344,21.5115679 19.0313497,21.5115679 L19.0313497,21.5115679 Z M19.0313497,31.908019 C17.3864785,31.908019 16.0531166,30.6464266 16.0531166,29.0913397 C16.0531166,27.5342092 17.3864785,26.2732554 19.0313497,26.2732554 C20.6760859,26.2732554 22.0093129,27.5342092 22.0093129,29.0913397 C22.0093129,30.6464266 20.6760859,31.908019 19.0313497,31.908019 L19.0313497,31.908019 Z" id="Fill-2"></path>
                <path d="M34.4380982,10.7373288 C34.4380982,9.83755978 33.6676933,9.10714402 32.7146748,9.10714402 C31.7646258,9.10714402 30.9927362,9.83755978 30.9927362,10.7373288 C30.9927362,11.6377364 31.7646258,12.3675136 32.7146748,12.3675136 C33.6676933,12.3675136 34.4380982,11.6377364 34.4380982,10.7373288" id="Fill-3"></path>
            </g>
            <path d="M55,43.956 C55,44.316 55.324,44.64 55.684,44.64 L59.032,44.64 C59.428,44.64 59.716,44.316 59.716,43.956 L59.716,34.02 L71.452,34.02 L71.452,43.956 C71.452,44.316 71.74,44.64 72.136,44.64 L75.448,44.64 C75.808,44.64 76.132,44.316 76.132,43.956 L76.132,20.124 C76.132,19.764 75.808,19.44 75.448,19.44 L72.136,19.44 C71.74,19.44 71.452,19.764 71.452,20.124 L71.452,29.664 L59.716,29.664 L59.716,20.124 C59.716,19.764 59.428,19.44 59.032,19.44 L55.684,19.44 C55.324,19.44 55,19.764 55,20.124 L55,43.956 Z M86.252,43.956 C86.252,44.316 86.576,44.64 86.936,44.64 L90.284,44.64 C90.644,44.64 90.968,44.316 90.968,43.956 L90.968,20.124 C90.968,19.764 90.644,19.44 90.284,19.44 L86.936,19.44 C86.576,19.44 86.252,19.764 86.252,20.124 L86.252,43.956 Z M99.612,32.076 C99.612,39.276 105.408,45 112.608,45 C115.812,45 118.908,43.884 121.356,41.508 C121.608,41.256 121.68,40.788 121.392,40.536 L119.16,38.232 C118.944,38.016 118.548,37.98 118.26,38.232 C116.748,39.456 114.912,40.284 112.752,40.284 C108.144,40.284 104.688,36.468 104.688,31.968 C104.688,27.432 108.108,23.58 112.716,23.58 C114.732,23.58 116.748,24.372 118.26,25.704 C118.548,25.992 118.908,25.992 119.16,25.704 L121.356,23.436 C121.644,23.148 121.644,22.716 121.32,22.428 C118.872,20.232 116.244,19.08 112.608,19.08 C105.408,19.08 99.612,24.876 99.612,32.076 L99.612,32.076 Z M129.856,43.776 C129.856,44.244 130.216,44.64 130.72,44.64 L133.888,44.64 C134.356,44.64 134.752,44.244 134.752,43.776 L134.752,32.796 L144.148,44.388 C144.22,44.496 144.436,44.64 144.796,44.64 L148.72,44.64 C149.44,44.64 149.728,43.848 149.368,43.38 L139.288,31.32 L148.684,20.736 C149.152,20.196 148.792,19.44 148.108,19.44 L144.508,19.44 C144.184,19.44 143.968,19.62 143.824,19.8 L134.752,30.024 L134.752,20.304 C134.752,19.836 134.356,19.44 133.888,19.44 L130.72,19.44 C130.216,19.44 129.856,19.836 129.856,20.304 L129.856,43.776 Z M163.844,45 C168.92,45 172.124,41.58 172.124,37.872 C172.124,33.228 168.092,31.14 164.6,29.736 C161.684,28.548 160.352,27.396 160.352,25.704 C160.352,24.336 161.468,23.184 163.52,23.184 C165.5,23.184 166.976,24.192 168.524,25.164 C168.956,25.452 169.496,25.164 169.784,24.732 L171.152,22.68 C171.404,22.32 171.296,21.708 170.936,21.492 C170.216,20.952 167.408,19.08 163.736,19.08 C158.012,19.08 155.636,22.788 155.636,25.992 C155.636,30.24 159.02,32.4 162.404,33.768 C165.428,34.992 166.976,36.252 166.976,38.088 C166.976,39.636 165.572,40.86 163.7,40.86 C161.36,40.86 159.74,39.744 158.264,38.628 C157.94,38.376 157.328,38.376 157.04,38.88 L155.744,41.112 C155.42,41.688 155.564,41.904 155.924,42.192 C156.968,43.092 159.308,45 163.844,45 L163.844,45 Z" id="HICKS" fill="#000000"></path>
        </g>
    </g>
</svg>