<?xml version="1.0" encoding="UTF-8" standalone="no"?>
<svg width="199px" height="72px" viewBox="0 0 199 72" version="1.1" xmlns="http://www.w3.org/2000/svg" xmlns:xlink="http://www.w3.org/1999/xlink">
    <defs></defs>
    <g id="Page-1" stroke="none" stroke-width="1" fill="none" fill-rule="evenodd">
        <g id="Large-Layout" transform="translate(-548.000000, -957.000000)" fill="#AB0534">
            <g id="mozilla_logo" transform="translate(548.000000, 957.000000)">
                <path d="M35.9540416,26.562837 C35.9540416,24.5810024 35.7866919,23.2852542 35.4572221,22.6669079 C35.1260091,22.0468247 34.3659625,21.7376515 33.1805686,21.7376515 C32.34382,21.7376515 31.3989914,21.9929799 30.340853,22.5036367 C29.2862011,23.0090827 28.2751299,23.7038538 27.3058961,24.5810024 L27.3058961,48.9162294 L18.8669378,48.9162294 L18.8669378,26.9475665 C18.8669378,24.8415415 18.6647236,23.4433146 18.2637815,22.7572282 C17.8628395,22.0798263 17.0382935,21.7376515 15.7918867,21.7376515 C14.9446787,21.7376515 13.9963637,21.9495567 12.9504279,22.3664194 C11.9027489,22.7798082 10.8899345,23.4363669 9.90849805,24.3117785 L9.90849805,48.9162294 L1.26383906,48.9162294 L1.26383906,25.3035643 C1.26383906,24.0738194 1.2411771,23.002135 1.19411001,22.0971956 C1.15052933,21.1939931 1.08602998,20.4123756 0.99712542,19.752343 C0.906477654,19.0836258 0.787938269,18.501755 0.631047906,17.998046 C0.477643995,17.4943369 0.26671364,17.0392618 0,16.6415054 L8.0327866,14.459924 C8.34133767,14.9410531 8.57492999,15.4187082 8.7300771,15.880731 C8.88173781,16.3444907 9.05083073,17.0166818 9.22515336,17.900778 C11.5715359,15.6062964 14.3362928,14.459924 17.5229104,14.459924 C20.3085859,14.459924 22.6096446,15.3822327 24.4225999,17.2337978 C24.6474761,17.4561245 24.8653794,17.6992944 25.0885123,17.9650444 C25.3099021,18.2255836 25.5295486,18.5364937 25.7526815,18.88909 C27.2989233,17.3032749 28.8277327,16.1707979 30.3303937,15.4795007 C31.8365412,14.7951511 33.5170113,14.459924 35.3770337,14.459924 C36.7018857,14.459924 37.9639815,14.6440384 39.1563483,15.0192148 C40.3522015,15.3926543 41.326665,15.9137326 42.0779955,16.5755021 C43.0489725,17.3258549 43.7166282,18.3124299 44.0687599,19.5508595 C44.4226348,20.7823413 44.6004439,22.54706 44.6004439,24.8415416 L44.6004439,48.9162295 L35.9540416,48.9162295 L35.9540416,26.562837 L35.9540416,26.562837 Z" id="Shape"></path>
                <path d="M79.5224955,39.3075448 C78.8356643,41.3849104 77.7653234,43.2607925 76.3097294,44.9386647 C75.0267149,46.3942102 73.5031352,47.5371087 71.7355037,48.3777818 C69.9713588,49.214981 67.7609479,49.6353175 65.111244,49.6353175 C62.815415,49.6353175 60.7270299,49.214981 58.8495752,48.3777818 C56.9738638,47.5371087 55.3718388,46.3594717 54.0487301,44.8379229 C52.7238782,43.3129003 51.6936314,41.4717568 50.9649629,39.3075448 C50.2380375,37.1468066 49.8737032,34.7428985 49.8737032,32.0923467 C49.8737032,29.4452687 50.2380375,27.0344129 50.9649629,24.8484892 C51.6936314,22.6616971 52.7238782,20.7823412 54.0487301,19.2191062 C55.3718389,17.6558712 56.9738638,16.4521802 58.8495752,15.614981 C60.7270299,14.7743079 62.815415,14.3557083 65.111244,14.3557083 C69.9225484,14.3557083 73.7698488,16.0544237 76.6409424,19.4535914 C78.0076318,21.0428804 79.003014,22.807599 79.6201161,24.7512212 C80.2372182,26.6878958 80.5475125,29.0492491 80.5475125,31.8318074 C80.5475125,34.7428985 80.2058402,37.2406007 79.5224955,39.3075448 L79.5224955,39.3075448 Z M69.0857999,22.7971775 C68.1584035,21.6125928 66.8788754,21.0203003 65.2472157,21.0203003 C64.1873341,21.0203003 63.2494784,21.3242627 62.4353917,21.9460829 C61.6160753,22.5574815 61.035581,23.387733 60.6817061,24.4420482 C60.373155,25.3157229 60.1430491,26.3683011 59.9861588,27.5937037 C59.8327549,28.8199747 59.7560529,30.2685725 59.7560529,31.9325493 C59.7560529,35.7468428 60.1308466,38.5710874 60.8786906,40.4157048 C61.2761462,41.3328026 61.9071941,42.0275738 62.7648614,42.4861227 C63.6260152,42.9446717 64.4958851,43.1808938 65.3797008,43.1808938 C67.3634923,43.1808938 68.7772488,42.2776914 69.6139974,40.4747603 C70.4524893,38.6857247 70.8726068,35.7920029 70.8726068,31.8040167 C70.8726068,27.3296906 70.2764234,24.3343586 69.0857999,22.7971775 L69.0857999,22.7971775 Z" id="Shape"></path>
                <path d="M84.5255548,48.9162294 L84.5255548,43.4622761 L100.533602,21.4284784 L85.8626094,21.4284784 L85.8626094,15.1755382 L111.083607,15.1755382 L111.083607,21.2078886 L96.0779153,42.6632893 L111.698966,42.6632893 L109.57223,48.9162294 L84.5255548,48.9162294 L84.5255548,48.9162294 Z" id="Shape"></path>
                <path d="M126.078839,9.59131536 C125.020701,10.6421567 123.718511,11.1771305 122.175756,11.1771305 C120.676581,11.1771305 119.400539,10.6421567 118.340658,9.59131536 C117.284263,8.5317894 116.752579,7.2343043 116.752579,5.68843855 C116.752579,4.14604666 117.291236,2.8433508 118.373779,1.78382484 C119.454579,0.72603578 120.768972,0.199746676 122.309984,0.199746676 C123.805672,0.199746676 125.076484,0.726035824 126.11196,1.78382484 C127.147437,2.8433508 127.663432,4.14604666 127.663432,5.68843855 C127.663432,7.23430435 127.135234,8.5317894 126.078839,9.59131536 L126.078839,9.59131536 Z M117.678232,15.6427718 L126.634928,14.2462819 L126.634928,48.9162294 L117.678232,48.9162294 L117.678232,15.6427718 L117.678232,15.6427718 Z" id="Shape"></path>
                <path d="M142.320478,49.7360593 C140.44651,49.7360593 138.813107,49.3157228 137.418526,48.4819975 C136.023945,47.6447983 135.065171,46.5227429 134.543946,45.1123575 C134.36788,44.6642301 134.237138,44.2508413 134.149977,43.8513479 C134.064559,43.4553284 133.98437,42.9933056 133.923357,42.4618057 C133.857115,41.9337796 133.810048,41.2737471 133.787386,40.4747603 C133.766467,39.6827212 133.759494,38.6926723 133.759494,37.5011399 L133.759494,12.2331826 C133.759494,9.98212414 133.722886,8.10797901 133.656644,6.61074724 C133.592144,5.11177852 133.470118,3.59196671 133.294053,2.04436401 L142.257722,0 C142.430301,0.922308689 142.547098,2.02352092 142.61334,3.30363669 C142.67784,4.58548942 142.712704,6.40926362 142.712704,8.79232857 L142.712704,35.1910259 C142.712704,36.6430975 142.72142,37.810313 142.744082,38.6926723 C142.765001,39.5750317 142.791149,40.2802243 142.815555,40.8047765 C142.838216,41.3397503 142.892256,41.732296 142.979418,41.9997829 C143.066579,42.2603221 143.178146,42.5069658 143.310631,42.7292926 C143.666249,43.3476389 144.264176,43.656812 145.104411,43.656812 L145.568109,43.656812 C145.65527,43.656812 145.833079,43.608178 146.099793,43.5213316 L147.625116,48.8120137 C145.986483,49.4338339 144.218852,49.7360593 142.320478,49.7360593 L142.320478,49.7360593 Z" id="Shape"></path>
                <path d="M160.319289,49.7360593 C158.445321,49.7360593 156.806688,49.3157228 155.417337,48.4819975 C154.017526,47.6447983 153.063982,46.5227429 152.541014,45.1123575 C152.366691,44.6642301 152.235949,44.2508413 152.148788,43.8513479 C152.061627,43.4553284 151.983181,42.9933056 151.916939,42.4618057 C151.852439,41.9337796 151.808859,41.2737471 151.786197,40.4747603 C151.765278,39.6827212 151.756562,38.6926723 151.756562,37.5011399 L151.756562,12.2331826 C151.756562,9.98212414 151.721697,8.10797901 151.653712,6.61074724 C151.585726,5.11177852 151.467186,3.59196671 151.292864,2.04436401 L160.25479,0 C160.429113,0.922308689 160.545909,2.02352092 160.612151,3.30363669 C160.676651,4.58548942 160.711515,6.40926362 160.711515,8.79232857 L160.711515,35.1910259 C160.711515,36.6430975 160.718488,37.810313 160.74115,38.6926723 C160.763812,39.5750317 160.786474,40.2802243 160.807393,40.8047765 C160.830055,41.3397503 160.885838,41.732296 160.976486,41.9997829 C161.06539,42.2603221 161.17347,42.5069658 161.304212,42.7292926 C161.658087,43.3476389 162.2595,43.656812 163.099735,43.656812 L163.56692,43.656812 C163.654081,43.656812 163.830147,43.608178 164.093374,43.5213316 L165.622184,48.8120137 C163.985294,49.4338339 162.21592,49.7360593 160.319289,49.7360593 L160.319289,49.7360593 Z" id="Shape"></path>
                <path d="M190.905937,48.8953863 C190.034324,48.1867197 189.378871,47.4016284 188.936092,46.5157952 C188.575244,46.8701285 188.233571,47.2001447 187.897129,47.5093179 C187.564173,47.8115433 187.219014,48.0790302 186.859909,48.3048308 C185.167236,49.5345757 182.873151,50.1494482 179.974165,50.1494482 C176.095487,50.1494482 173.165124,49.2462457 171.181332,47.4433146 C169.199284,45.6473313 168.207388,43.031518 168.207388,39.5958748 C168.207388,35.6009408 169.58105,32.6724805 172.326632,30.8035462 C175.068727,28.931138 179.233294,27.9966709 184.813362,27.9966709 L185.824433,27.9966709 C186.277672,27.9966709 186.612371,28.017514 186.83899,28.0626741 L186.83899,26.6722634 C186.83899,24.7720644 186.582736,23.458947 186.075457,22.7311742 C185.566435,21.9981907 184.494351,21.6351727 182.857462,21.6351727 C181.436732,21.6351727 179.911409,21.9721367 178.27452,22.6269585 C176.63763,23.2956758 174.885688,24.2405645 173.029152,25.4772571 L169.242865,19.1166275 C170.13191,18.5451782 170.968659,18.0640492 171.765313,17.6680297 C172.565454,17.2650624 173.559093,16.8308305 174.754946,16.3444907 C176.437159,15.6358241 178.020009,15.1286412 179.501751,14.8177311 C180.98698,14.5137687 182.501844,14.3557083 184.049828,14.3557083 C186.955787,14.3557083 189.328318,14.8611543 191.163935,15.8703094 C192.994322,16.8864122 194.240729,18.3419577 194.894439,20.2299982 C195.112342,20.716338 195.264003,21.2339424 195.351164,21.7810747 C195.438326,22.3368916 195.481906,23.075086 195.481906,23.9956577 L195.481906,26.3092455 L195.286665,37.667885 C195.286665,38.5988783 195.304097,39.3943912 195.351164,40.0787408 C195.394745,40.7561426 195.525487,41.3849105 195.750363,41.9650444 C195.975239,42.5312828 196.292507,43.0697305 196.716111,43.5734395 C197.136228,44.0840963 197.723695,44.6225439 198.473283,45.1992039 L193.747396,50.6149449 C192.724122,50.1702913 191.774064,49.600579 190.905937,48.8953863 L190.905937,48.8953863 Z M179.735343,35.2709245 C178.499396,35.9483264 177.882294,37.2614438 177.882294,39.2137507 C177.882294,40.4921295 178.253601,41.5169169 178.994472,42.3054822 C179.735343,43.0940474 180.687145,43.4831192 181.858593,43.4831192 C183.65063,43.4831192 185.226506,42.7397141 186.570534,41.2563778 L186.708248,34.249611 L186.302077,34.249611 C183.162526,34.249611 180.969548,34.5900488 179.735343,35.2709245 L179.735343,35.2709245 Z" id="Shape"></path>
                <g id="Group">
                    <path d="M6.74685613,72 C4.8553764,72 3.39945758,71.3886014 2.27845216,70.1067487 C1.17653505,68.8700561 0.624708857,67.213027 0.624708857,65.2051384 C0.624708857,63.4890537 0.919710282,62.13425 1.55136039,60.9496653 C2.61510085,58.959146 4.58119856,57.7780351 6.78503274,57.7780351 C8.1420393,57.7780351 9.50078118,58.2122671 10.2504319,58.8618781 L9.00969055,60.7308124 C8.31904015,60.2236295 7.59194838,59.9630903 6.82494468,59.9630903 C5.90002842,59.9630903 4.99420051,60.4181654 4.5013746,61.1442012 C3.97037204,61.9327664 3.73610618,63.0756649 3.73610618,64.6736385 C3.73610618,66.5425728 3.8922834,67.5882034 4.30702072,68.3350823 C4.85537631,69.3425005 5.76120422,69.8705265 6.94120992,69.8705265 C7.74812561,69.8705265 8.47695266,69.6343043 9.2838683,68.9846933 L10.5419626,70.7181473 C9.46260457,71.6039805 8.29995189,72 6.74685613,72 L6.74685613,72 Z" id="Shape"></path>
                    <path d="M27.8585464,71.3469151 C27.0325424,71.8019902 26.2638034,71.9791569 25.1237096,71.9791569 C23.0586997,71.9791569 21.7207814,71.4094445 20.6761293,70.051167 C19.6332125,68.7137326 19.10221,66.9768048 19.10221,64.9654424 C19.10221,62.0126651 20.2232154,59.6504433 22.1910484,58.5666003 C22.9996994,58.1323684 24.0027042,57.8961462 25.0265327,57.8961462 C28.6654621,57.8961462 30.9109435,60.5536457 30.9109435,64.8508051 C30.9109435,67.9390628 29.847203,70.266546 27.8585464,71.3469151 L27.8585464,71.3469151 Z M27.3865441,61.7590736 C27.1713666,61.0712502 26.4425395,60.0221458 24.9866207,60.0221458 C24.0599692,60.0221458 23.2530535,60.498064 22.8608751,61.2275737 C22.3906081,62.1134069 22.1736953,63.3118871 22.1736953,64.9654424 C22.1736953,67.331138 22.5658737,68.8075267 23.3918777,69.401556 C23.823968,69.714203 24.3775295,69.8705265 25.0265327,69.8705265 C26.9353654,69.8705265 27.7422811,68.4115071 27.7422811,64.92723 C27.7422811,63.53074 27.6242806,62.5233219 27.3865441,61.7590736 L27.3865441,61.7590736 Z" id="Shape"></path>
                    <path d="M46.9277856,71.760304 C46.396783,70.8536276 46.1798702,70.4784512 45.6471324,69.5161932 C44.2901258,67.0567035 43.8771238,66.3862493 43.3860332,66.1708703 C43.247209,66.1118147 43.1292084,66.0701285 42.9539428,66.0492853 L42.9539428,71.760304 L40.2555474,71.760304 L40.2555474,58.0733128 L45.3521309,58.0733128 C47.7728779,58.0733128 49.3676209,59.6886557 49.3676209,62.0925638 C49.3676209,64.1386647 48.0106143,65.8339063 46.3186944,65.8721187 C46.5928722,66.0909716 46.7108727,66.2090827 46.8878736,66.4453049 C47.6739656,67.4318799 50.1745365,71.760304 50.1745365,71.760304 L46.9277856,71.760304 L46.9277856,71.760304 Z M45.4909551,60.4772209 C45.1751301,60.3591098 44.6042155,60.282685 43.9361241,60.282685 L42.9539429,60.282685 L42.9539429,63.9823412 L43.8771238,63.9823412 C45.0571295,63.9823412 45.5690438,63.8642301 45.9421338,63.53074 C46.2787825,63.2111453 46.4748717,62.7248055 46.4748717,62.1516193 C46.4748716,61.3005247 46.1399583,60.7134431 45.4909551,60.4772209 L45.4909551,60.4772209 Z" id="Shape"></path>
                    <path d="M66.9202057,66.2681382 C66.2920262,66.563416 65.6985528,66.7197395 64.185369,66.7197395 L62.6704499,66.7197395 L62.6704499,71.760304 L59.9165248,71.760304 L59.9165248,58.0733128 L63.5172775,58.0733128 C65.837377,58.0733128 66.5471157,58.3130089 67.3158547,58.743767 C68.5930374,59.4489597 69.2819525,60.7134431 69.2819525,62.2905735 C69.2819524,64.1039262 68.4177718,65.5559978 66.9202057,66.2681382 L66.9202057,66.2681382 Z M64.4213701,60.2965804 L62.6704499,60.2965804 L62.6704499,64.4756287 L64.1072803,64.4756287 C65.2282858,64.4756287 65.5631992,64.3366745 65.9380245,63.7669622 C66.1722904,63.3917858 66.2712026,62.9992401 66.2712026,62.3496291 C66.2712026,61.0712502 65.5822875,60.2965804 64.4213701,60.2965804 L64.4213701,60.2965804 Z" id="Shape"></path>
                    <path d="M85.7135318,71.3469151 C84.8875278,71.8019902 84.1187888,71.9791569 82.9786951,71.9791569 C80.9136851,71.9791569 79.5757669,71.4094445 78.5311147,70.051167 C77.4881979,68.7137326 76.9571954,66.9768048 76.9571954,64.9654424 C76.9571954,62.0126651 78.0782008,59.6504433 80.0460338,58.5666003 C80.8546848,58.1323684 81.8576896,57.8961462 82.8815181,57.8961462 C86.5204475,57.8961462 88.7659289,60.5536457 88.7659289,64.8508051 C88.765929,67.9390628 87.7021885,70.266546 85.7135318,71.3469151 L85.7135318,71.3469151 Z M85.2415295,61.7590736 C85.026352,61.0712502 84.297525,60.0221458 82.8416062,60.0221458 C81.9149546,60.0221458 81.1080389,60.498064 80.7158606,61.2275737 C80.2438583,62.1134069 80.0269455,63.3118871 80.0269455,64.9654424 C80.0269455,67.331138 80.4208591,68.8075267 81.2468631,69.401556 C81.6789535,69.714203 82.232515,69.8705265 82.8815181,69.8705265 C84.7903508,69.8705265 85.5972665,68.4115071 85.5972665,64.92723 C85.5972666,63.53074 85.4775307,62.5233219 85.2415295,61.7590736 L85.2415295,61.7590736 Z" id="Shape"></path>
                    <path d="M104.387122,71.760304 C103.85612,70.8536276 103.639207,70.4784512 103.108204,69.5161932 C101.749462,67.0567035 101.338196,66.3862493 100.84537,66.1708703 C100.706545,66.1118147 100.59028,66.0701285 100.413279,66.0492853 L100.413279,71.760304 L97.7148839,71.760304 L97.7148839,58.0733128 L102.813203,58.0733128 C105.23395,58.0733128 106.828693,59.6886557 106.828693,62.0925638 C106.828693,64.1386647 105.469951,65.8339063 103.778031,65.8721187 C104.053944,66.0909716 104.170209,66.2090827 104.348945,66.4453049 C105.133302,67.4318799 107.635608,71.760304 107.635608,71.760304 L104.387122,71.760304 L104.387122,71.760304 Z M102.952027,60.4772209 C102.634467,60.3591098 102.065287,60.282685 101.397196,60.282685 L100.413279,60.282685 L100.413279,63.9823412 L101.338196,63.9823412 C102.518201,63.9823412 103.030116,63.8642301 103.403206,63.53074 C103.739854,63.2111453 103.934208,62.7248055 103.934208,62.1516193 C103.934208,61.3005247 103.60103,60.7134431 102.952027,60.4772209 L102.952027,60.4772209 Z" id="Shape"></path>
                    <path d="M124.658926,71.760304 L123.692362,68.512249 L119.678608,68.512249 L118.715515,71.760304 L115.840119,71.760304 L120.325876,58.0351004 L123.298449,58.0351004 L127.60894,71.760304 L124.658926,71.760304 L124.658926,71.760304 Z M122.27462,63.4716845 C122.135796,62.8429166 121.722794,61.0469332 121.722794,61.0469332 C121.722794,61.0469332 121.330616,62.6622761 121.072056,63.6870635 C120.818701,64.6736385 120.643436,65.3267234 120.348434,66.2299258 L123.022536,66.2299258 C123.022536,66.2299258 122.569622,64.7917496 122.27462,63.4716845 L122.27462,63.4716845 Z" id="Shape"></path>
                    <path d="M144.429227,60.3591098 L141.165123,60.3591098 L141.165123,71.760304 L138.373022,71.760304 L138.373022,60.3591098 L135.027358,60.3591098 L135.027358,58.0733128 L144.885612,58.0733128 L144.429227,60.3591098 L144.429227,60.3591098 Z" id="Shape"></path>
                    <path d="M154.034127,71.760304 L154.034127,58.0733128 L156.906052,58.0733128 L156.906052,71.760304 L154.034127,71.760304 L154.034127,71.760304 Z" id="Shape"></path>
                    <path d="M175.800026,71.3469151 C174.970551,71.8019902 174.207018,71.9791569 173.061719,71.9791569 C170.996709,71.9791569 169.65879,71.4094445 168.615874,70.051167 C167.574692,68.7137326 167.04369,66.9768048 167.04369,64.9654424 C167.04369,62.0126651 168.164695,59.6504433 170.132528,58.5666003 C170.939444,58.1323684 171.942449,57.8961462 172.964542,57.8961462 C176.606942,57.8961462 178.848952,60.5536457 178.848952,64.8508051 C178.848952,67.9390628 177.786947,70.266546 175.800026,71.3469151 L175.800026,71.3469151 Z M175.326288,61.7590736 C175.112846,61.0712502 174.384019,60.0221458 172.9281,60.0221458 C171.999713,60.0221458 171.194533,60.498064 170.802355,61.2275737 C170.328617,62.1134069 170.111704,63.3118871 170.111704,64.9654424 C170.111704,67.331138 170.505618,68.8075267 171.331622,69.401556 C171.765448,69.714203 172.315539,69.8705265 172.964542,69.8705265 C174.873374,69.8705265 175.682025,68.4115071 175.682025,64.92723 C175.682025,63.53074 175.560554,62.5233219 175.326288,61.7590736 L175.326288,61.7590736 Z" id="Shape"></path>
                    <path d="M194.631529,71.760304 L192.28887,66.5252035 C191.521867,64.8091189 190.697598,62.881129 190.439038,62.0335082 C190.541421,63.1555636 190.557038,64.7709065 190.577862,65.913805 L190.655951,71.760304 L187.999203,71.760304 L187.999203,58.0733128 L191.048129,58.0733128 L193.666701,63.5481093 C194.35388,65.0071286 194.886618,66.4453049 195.164267,67.4318799 C195.061884,66.36888 194.966442,64.614583 194.947354,63.6696942 L194.886618,58.0733128 L197.503454,58.0733128 L197.503454,71.760304 L194.631529,71.760304 L194.631529,71.760304 Z" id="Shape"></path>
                </g>
            </g>
        </g>
    </g>
</svg>