<?xml version="1.0" encoding="utf-8"?>
<!-- Generator: Adobe Illustrator 18.1.1, SVG Export Plug-In . SVG Version: 6.00 Build 0)  -->
<!DOCTYPE svg PUBLIC "-//W3C//DTD SVG 1.1//EN" "http://www.w3.org/Graphics/SVG/1.1/DTD/svg11.dtd">
<svg version="1.1" id="Layer_1" xmlns="http://www.w3.org/2000/svg" xmlns:xlink="http://www.w3.org/1999/xlink" x="0px" y="0px"
	 viewBox="-539 346 200 89" enable-background="new -539 346 200 89" xml:space="preserve">
<polygon fill="#FFFFFF" points="-528.6771,368.2362 -528.6771,392.0542 -523.8492,408.7911 -510.9746,415.5503 -485.2255,411.6879 
	-468.8104,413.9409 -456.9014,427.7811 -448.2111,427.7811 -436.624,417.8033 -426.968,427.7811 -418.9214,427.7811 
	-412.806,413.9409 -391.2411,409.113 -374.5042,412.9753 -356.8016,408.4692 -352.6174,398.0087 -351.0081,381.1108 
	-344.8927,380.4671 -341.0303,374.9954 -341.0303,369.5237 -348.1113,366.6269 -358.4109,370.1674 -373.2167,363.7301 
	-390.5974,373.0642 -398.3221,367.2706 -410.5529,369.2018 -426.3243,356.3272 -443.3831,369.5237 -452.7172,366.305 
	-463.9824,361.4771 -477.1789,368.5581 -477.8226,356.3272 -486.1911,350.2118 -494.2377,355.3616 -497.1344,367.9143 
	-506.1466,362.7645 -519.3431,366.6269 "/>
<g id="Page-1">
	<g id="Large-Layout" transform="translate(-60.000000, -1057.000000)">
		
			<g id="skype_logo" transform="translate(160.000000, 1101.500000) scale(1, -1) translate(-160.000000, -1101.500000) translate(60.000000, 1057.000000)">
			<path id="path3003" fill="#00ADEF" d="M-382.3126-296.3414h18.355c-0.5672,4.8303-4.1529,8.3773-8.8162,8.3773
				C-378.0211-287.964-381.1741-291.2152-382.3126-296.3414L-382.3126-296.3414z M-410.4396-312.0116
				c6.6631,0.0761,8.3079,6.7961,8.3079,11.7046c0,6.2106-2.7245,11.3981-8.3079,11.4742
				c-6.1106,0.0803-8.4024-5.4792-8.4024-11.4742C-418.842-305.727-416.8254-312.0116-410.4396-312.0116L-410.4396-312.0116z
				 M-339.0592-284.9771c0,6.1176-4.9112,11.0578-10.9861,11.0578c-3.1404,0-5.9573-1.317-7.955-3.4393
				c-4.6486,3.2512-10.2803,5.1558-16.3741,5.1558c-6.1548,0-11.8306-1.949-16.5107-5.2636
				c-2.1069,1.9659-4.907,3.1603-7.999,3.1603c-2.2939,0-4.4344-0.668-6.2472-1.8116
				c-4.2936,7.7094-12.4797,12.9138-21.8819,12.9138c-8.5999,0-16.1725-4.3377-20.7098-10.9478
				c-3.7853,3.9149-9.0788,6.348-14.9416,6.348c-3.8777,0-7.4928-1.0696-10.6017-2.9256
				c-0.0756,7.4472-6.0791,13.4549-13.4942,13.4549c-7.4634,0-13.509-6.0859-13.509-13.5796l0.0315-0.5264
				c-1.4473,0.2156-2.924,0.3403-4.4323,0.3403c-4.4008,0-8.5558-0.9745-12.2948-2.71c-2.1069,1.131-4.4932,1.782-7.0475,1.782
				c-8.2007,0-14.8785-6.7053-14.8785-14.9748c0-4.3821,1.8926-8.2991,4.8629-11.0408c-0.0778-0.8984-0.1239-1.8116-0.1239-2.7248
				c0-16.3826,13.2023-29.6515,29.4819-29.6515c6.3228,0,12.1877,2.0124,16.9854,5.42c4.3251-5.9485,11.297-9.8338,19.1743-9.8338
				c0.1995,0,0.3844,0.0151,0.5672,0.0317c2.2791-6.4875,8.3877-11.1339,15.6032-11.1339c7.2954,0,13.4943,4.7689,15.6789,11.3812
				c2.5102-4.7859,7.4781-8.037,13.217-8.037c7.1714,0,13.1581,5.0945,14.6033,11.8758c1.0314-0.1373,2.0922-0.2325,3.1551-0.2325
				c5.8481,0,11.1562,2.2323,15.1999,5.8703c4.5877-3.1433,10.1417-4.9867,16.1116-4.9867c15.8658,0,28.713,12.9455,28.713,28.9095
				c0,1.968-0.1847,3.9023-0.5692,5.7604C-342.0462-293.7708-339.0591-289.7312-339.0592-284.9771L-339.0592-284.9771z
				 M-354.0469-297.8591c0-3.6084-1.0776-4.5364-4.6003-4.5364h-23.6653c0-5.5595,3.5836-9.6161,9.6775-9.6161
				c7.894,0,7.894,5.2023,12.1247,5.2023c2.5102,0,4.3083-2.1689,4.3083-4.1179c0-6.348-10.1227-9.3053-16.433-9.3053
				c-11.9083,0-17.7879,6.5953-19.5566,13.996c-1.5838-7.7579-6.6337-13.996-15.6032-13.996c-4.7999,0-8.3835,1.949-10.3223,5.3397
				h-0.1534v-14.0764c0-3.4668-2.0796-5.2784-5.2325-5.2784c-3.1572,0-5.2326,1.8116-5.2326,5.2784v39.2697l-11.7717-33.5707
				c-2.506-7.2147-5.386-10.9774-11.986-10.9774c-4.6613,0-6.6022,2.3084-6.6022,4.8472c0,2.8199,2.0166,4.2595,4.8188,4.2595
				h1.0756c1.3549,0,2.861,0.0592,3.6487,3.3124l-10.8958,31.2623c-0.3844,1.1309-0.6764,1.9807-0.8907,2.6952
				c-0.2478-0.3256-0.523-0.6194-0.8486-0.9618l-7.7386-8.1596l10.9105-14.7253c0.3529-0.4946,1.0755-1.6573,1.0755-3.3907
				c0-2.6783-2.1531-5.1241-4.9532-5.1241c-2.5858,0-3.9554,1.2979-4.739,2.4458l-9.8959,14.0912l-3.6613-3.2512v-8.0222
				c0-3.4541-2.0775-5.2636-5.2326-5.2636c-3.1698,0-5.2473,1.8095-5.2473,5.2636v3.8874c-1.8758-6.2254-8.8771-9.151-15.6327-9.151
				c-9.4632,0-17.3551,4.2574-17.3551,9.4596c0,2.3063,1.2919,4.3969,4.2306,4.3969c4.5226,0,4.9553-6.5023,12.6939-6.5023
				c3.7244,0,6.0938,1.6721,6.0938,3.824c0,2.6783-2.2939,3.1116-6.0161,4.0565l-6.1695,1.503
				c-6.0938,1.5157-10.8328,4.0566-10.8328,11.1339c0,8.576,8.4633,11.7659,15.7083,11.7659c7.955,0,16.0023-3.1898,16.0023-8.0201
				c0-2.4606-1.6616-4.6146-4.384-4.6146c-4.0941,0-4.2327,4.8324-10.8328,4.8324c-3.6613,0-6.0308-1.0062-6.0308-3.2512
				c0-2.4478,2.3695-3.0355,5.6002-3.75l4.3692-1.0211c5.0331-1.1457,10.8643-3.1433,12.5553-8.1596v32.9344
				c0,3.452,2.0775,5.2635,5.2473,5.2635c3.1551,0,5.2326-1.8116,5.2326-5.2635v-23.9673l11.6163,12.9899
				c1.0776,1.1605,2.4472,2.0272,4.0164,2.0272c1.7078,0,3.5227-1.114,4.4007-2.7248c0.8466,1.6425,2.5396,2.7248,4.5079,2.7248
				c2.8001,0,4.739-1.5938,5.3691-3.9783l6.7555-24.6205h0.1387l6.3879,23.8912c0.7226,2.6804,2.1531,4.7076,5.0309,4.7076
				c2.4766,0,3.9071-1.2366,4.6634-2.507c0.6281,1.6256,2.0292,2.507,4.2915,2.507c3.0921,0,4.739-1.7482,4.739-4.9845v-1.6573
				h0.1534c1.7246,4.473,5.9552,6.6418,11.0323,6.6418c7.4781,0,14.1559-4.7224,15.9583-14.5858
				c2.0292,8.9185,8.8456,14.5858,19.1407,14.5858C-360.939-280.595-354.0469-289.1879-354.0469-297.8591L-354.0469-297.8591z
				 M-350.8015-281.3538h2.0481c0,0,0.0151,0,1.5692-4.566l1.462,4.566h2.0291v-6.6418h-1.3528c0,0-0.0151,0-0.0151,4.7076
				l-1.6174-4.7076h-1.1238c0,0-0.015,0-1.63,4.6611v-4.6611h-1.3696v6.6418H-350.8015z M-356.9562-282.5757v1.2219h5.4006v-1.2219
				h-1.9683v-5.42h-1.462v5.42H-356.9562L-356.9562-282.5757z"/>
		</g>
	</g>
</g>
</svg>
