<?xml version="1.0" encoding="UTF-8" standalone="no"?>
<svg width="200px" height="63px" viewBox="0 0 200 63" version="1.1" xmlns="http://www.w3.org/2000/svg" xmlns:xlink="http://www.w3.org/1999/xlink">
    <defs>
        <radialGradient cx="51.1509244%" cy="24.6304001%" fx="51.1509244%" fy="24.6304001%" r="50%" id="radialGradient-1">
            <stop stop-color="#A9D03F" offset="0%"></stop>
            <stop stop-color="#A9D03F" offset="7.105015%"></stop>
            <stop stop-color="#A1CC3E" offset="24.677444%"></stop>
            <stop stop-color="#94C93D" offset="45.569649%"></stop>
            <stop stop-color="#8DC540" offset="59.65941%"></stop>
            <stop stop-color="#84BC41" offset="79.657596%"></stop>
            <stop stop-color="#79B641" offset="100%"></stop>
        </radialGradient>
    </defs>
    <g id="Page-1" stroke="none" stroke-width="1" fill="none" fill-rule="evenodd">
        <g id="Large-Layout" transform="translate(-55.000000, -960.000000)">
            <g id="spotify_white" transform="translate(55.000000, 960.000000)">
                <path d="M71.9354429,41.819765 C71.6132653,41.5728507 71.73327,41.313052 71.9287597,41.088303 L74.7117683,37.8044474 C74.9368107,37.5551854 75.1509653,37.5877736 75.4063388,37.8091698 C77.9075047,39.9656635 80.1570833,41.2300495 83.74119,41.2300495 C86.0326999,41.2300495 88.3244133,40.3547793 88.3244133,38.0548679 C88.3244133,37.3017279 88.0714281,36.6577685 87.6238093,36.2039905 C84.7375996,33.2780619 72.8359543,34.7896952 72.8359543,25.5431409 C72.8359543,21.495506 75.7790092,17.0381909 82.7678461,17.0381909 C87.0414543,17.0381909 90.2768782,18.5268926 92.8131372,20.4921461 C93.1954351,20.7939126 93.1013144,21.0036316 92.9138438,21.2354896 L90.4601009,24.7020964 C90.2234254,25.0055094 90.0643296,25.0117032 89.6190556,24.7020964 C88.1833404,23.5946553 85.7073581,22.1128112 82.6166466,22.1128112 C80.0696735,22.1128112 78.4303216,23.2719808 78.4303216,25.1273441 C78.4303216,30.654652 93.9187807,27.1097516 93.9187807,37.6390702 C93.9187807,42.7393261 89.9711099,46.2668697 83.6655907,46.2668697 C79.2108837,46.2668697 75.3725142,44.7584575 71.9354421,41.819765 L71.9354429,41.819765 Z" id="path3017" fill="#000000"></path>
                <path d="M107.952529,23.8120243 C104.542746,23.8120243 102.783086,25.3526783 101.249695,26.9927134 L101.249695,24.703085 C101.249695,24.4032636 101.12856,24.2610628 100.819366,24.2610628 L96.2728521,24.2610628 C95.8062584,24.2610628 95.7489739,24.3780074 95.7489739,24.784941 L95.7489739,51.7646684 C95.7489739,52.0742085 95.8708811,52.2137068 96.1980123,52.2137068 L100.725817,52.2137068 C101.074087,52.2137068 101.249695,52.1037388 101.249695,51.6898286 L101.249695,43.2586638 C102.421749,44.7658839 104.749985,46.3107221 107.931481,46.3107221 C112.924541,46.3107221 118.062911,42.6003577 118.062911,35.0847606 C118.062911,27.092861 112.473538,23.8120243 107.952529,23.8120243 L107.952529,23.8120243 Z M106.855659,28.6999951 C109.676594,28.6999951 112.477995,30.9201318 112.477995,35.1245192 C112.477995,38.8891873 110.018766,41.4274289 106.855659,41.4274289 C103.457663,41.4274289 101.137435,38.4114935 101.137435,35.0870994 C101.137435,31.7854326 103.307614,28.6999951 106.855659,28.6999951 L106.855659,28.6999951 Z" id="path3019" fill="#000000"></path>
                <path d="M142.542,35.0968361 L142.542,35.015291 C142.54198,33.4509507 142.250874,31.9874491 141.668691,30.6248065 C141.086469,29.262184 140.286041,28.0751263 139.267408,27.0636334 C138.248735,26.0521708 137.038102,25.2564183 135.635498,24.6763454 C134.232864,24.0963231 132.711547,23.8063018 131.071538,23.8062816 C129.404053,23.8063018 127.869212,24.1029094 126.467005,24.6961044 C125.064778,25.2893499 123.847685,26.09869 122.815716,27.1241447 C121.783737,28.1496399 120.976641,29.3434863 120.394439,30.7056939 C119.812236,32.0679319 119.52114,33.5316358 119.52114,35.0967956 L119.52114,35.1770255 C119.52114,36.7422156 119.812236,38.2061118 120.394439,39.5687443 C120.976641,40.931387 121.777069,42.1184447 122.795732,43.1299174 C123.814375,44.1413901 125.025018,44.9371527 126.427642,45.5172054 C127.830246,46.0972479 129.351563,46.3872692 130.991602,46.3872692 C132.659057,46.3872692 134.193908,46.0904593 135.596135,45.4968191 C136.998332,44.9031891 138.215425,44.0938491 139.247424,43.0687788 C140.279383,42.0437186 141.086469,40.8498722 141.668691,39.4872296 C142.250874,38.1246071 142.54198,36.6611157 142.542,35.096745 L142.542,35.0968361 Z M131.058172,41.4875427 C127.108276,41.4875427 125.01332,37.9958448 125.01332,35.0419702 C125.01332,31.393293 127.581688,28.7126652 130.971559,28.7126652 C133.946709,28.7126652 137.028546,31.0718779 137.028546,35.1769344 C137.028546,39.1292406 134.157503,41.4875427 131.058172,41.4875427 L131.058172,41.4875427 Z" id="path3032" fill="#000000"></path>
                <path d="M153.303408,41.2447159 C154.504571,41.2447159 155.410341,40.8471739 155.855982,40.6433254 C156.284791,40.4053575 156.593685,40.5210649 156.593685,40.9867859 L156.593685,44.7287731 C156.593685,44.9573037 156.467797,45.0855985 156.270272,45.1938489 C155.055496,45.8013403 153.833251,46.2362595 151.880121,46.2362595 C147.606397,46.2362595 145.517403,43.9103735 145.517403,39.8641898 L145.517403,29.0872668 L143.272211,29.0872668 C142.981256,29.0872668 142.898012,28.934941 142.898012,28.7130681 L142.898012,24.5594623 C142.898012,24.3685476 142.99341,24.2601034 143.197371,24.2601034 L145.517403,24.2601034 L145.517403,18.9839015 C145.517403,18.7388612 145.598941,18.534863 145.966441,18.534863 L150.531666,18.534863 C150.927366,18.534863 151.055544,18.7039926 151.055544,19.0587412 L151.055544,24.2601034 L156.271462,24.2601034 C156.500367,24.2601034 156.668525,24.3796733 156.668525,24.7091418 L156.668525,28.6382283 C156.668525,28.9446484 156.528477,29.0872668 156.219486,29.0872668 L151.055544,29.0872668 L151.055544,38.8912731 C151.055544,40.2059275 151.431412,41.2447159 153.303408,41.2447159 L153.303408,41.2447159 Z" id="path3034" fill="#000000"></path>
                <path d="M159.287916,45.8513692 C158.992149,45.8513692 158.838877,45.7101122 158.838877,45.4023308 L158.838877,24.7091418 C158.838877,24.4211098 158.961135,24.2601034 159.287916,24.2601034 L163.919291,24.2601034 C164.270087,24.2601034 164.377018,24.4557838 164.377018,24.7131068 L164.377018,45.4023308 C164.377018,45.7550969 164.220843,45.8513692 163.92798,45.8513692 L159.287916,45.8513692 Z" id="path3036" fill="#000000"></path>
                <path d="M165.082867,18.1863624 C165.082867,20.0868086 163.542248,21.6274257 161.641816,21.6274257 C159.741367,21.6274257 158.200748,20.0868086 158.200748,18.1863624 C158.200748,16.2859162 159.741367,14.7452992 161.641816,14.7452992 C163.542248,14.7452992 165.082867,16.2859162 165.082867,18.1863624 L165.082867,18.1863624 Z" id="path3038" fill="#000000"></path>
                <path d="M169.6158,45.8513692 C169.35657,45.8513692 169.241601,45.7102462 169.241601,45.4771705 L169.241601,29.0872668 L166.996409,29.0872668 L166.62221,28.7130681 L166.62221,24.6417584 C166.62221,24.3859434 166.698599,24.2601034 166.996409,24.2601034 L169.241601,24.2601034 L169.241601,23.2497668 C169.241601,19.2576368 170.854622,16.01041 176.028833,16.01041 C177.625868,16.01041 179.275695,16.3884697 179.894208,16.5377031 C180.156432,16.6179104 180.243044,16.7324129 180.243044,16.9632284 L180.243044,20.9297348 C180.243044,21.3344951 179.953451,21.4074541 179.445424,21.2250539 C179.05414,21.0906036 178.125401,20.8261304 177.107977,20.8261304 C175.188555,20.8261304 174.630063,21.9603933 174.630063,23.6988053 L174.630063,24.2601034 L182.787595,24.2601034 C183.013229,24.2601034 183.114914,24.3518786 183.241431,24.6856706 L188.739091,39.1018115 L193.738101,24.7779659 C193.871698,24.4128124 193.94748,24.2975232 194.238076,24.2975232 L199.102659,24.2975232 C199.572361,24.2975232 199.56897,24.6242256 199.382777,25.0709254 L191.234787,46.201944 C190.021066,48.9863364 188.831234,52.3195856 183.980009,52.3195856 C181.660703,52.3195856 180.407706,51.771823 178.871972,51.0508155 C178.515683,50.8897581 178.676094,50.5327231 178.869053,50.1678434 L180.283989,47.0574865 C180.446817,46.6967088 180.690511,46.7450403 181.009927,46.8995185 C181.394071,47.0934448 182.371104,47.572702 183.4658,47.572702 C184.881065,47.572702 185.475651,46.6723926 186.030244,45.5175787 L179.195287,29.0872668 L174.704903,29.0872668 L174.704903,45.4771705 C174.704903,45.7191611 174.5881,45.8513692 174.330704,45.8513692 L169.6158,45.8513692 Z" id="path3040" fill="#000000"></path>
                <path d="M12.4997446,39.7308891 L12.6042986,40.7555183 L13.3954233,41.1214555 C13.4409662,39.9094285 14.1946799,39.173265 15.1902656,38.9955249 C18.3452014,38.3094832 22.2259248,37.6537496 26.7469591,37.6537496 C33.8556046,37.6537496 39.9876797,39.4163709 44.9497973,42.4423209 C45.6823981,42.8875456 45.9223167,43.4420063 46.0267028,44.1779145 L48.7834412,42.3935298 L48.0864148,39.6472455 L27.5102029,34.1267957 L8.27228097,36.5803294 L12.4997446,39.7308891 Z" id="path3103" stroke="#008080" stroke-width="0.5" fill="#7A9F3F"></path>
                <path d="M11.1997909,32.0775416 L12.1338059,31.7252375 C12.166338,30.5544778 12.7977411,29.5810835 14.1482115,29.2127611 C17.6422463,28.1862573 21.7457534,27.5433869 26.2276748,27.5433869 C34.8258346,27.5433869 42.7059518,29.7958688 48.4628851,33.2671565 C49.3841308,33.8328651 49.7379715,34.2506606 49.9117233,35.7322143 L54.1456983,33.4051608 L36.3628796,25.0854804 L6.63284546,26.820392 L11.1997909,32.0775416 Z" id="path3105" stroke="#000080" stroke-width="0.5" fill="#82A73E"></path>
                <path d="M10.028787,22.2006814 C9.933917,20.4514882 10.8518107,19.1927791 12.1965383,18.8061622 C16.6171381,17.5221871 21.3579573,16.8928242 26.9595521,16.8928242 C36.2766617,16.8928242 45.6370107,18.8429521 52.4847198,22.7985561 C53.8305762,23.5309786 54.2194548,24.5148802 54.2927142,26.0180593 L58.5421161,23.2125688 L45.7865905,12.4285295 L6.75113451,16.6080827 L10.028787,22.2006814 Z" id="path3107" stroke="#000000" stroke-width="0.5" fill="#81A83E"></path>
                <path d="M31.4860844,0.500038339 C14.3731109,0.500038339 0.499990778,14.371845 0.499990778,31.4848264 C0.499990778,48.5977994 14.3731109,62.47092 31.4860844,62.47092 C48.5990578,62.47092 62.472178,48.5977994 62.472178,31.4848264 C62.472178,14.371845 48.5990578,0.500038339 31.4860844,0.500038339 L31.4860844,0.500038339 Z M26.9393825,16.671758 C36.0379194,16.671758 45.6108669,18.5433599 52.6033373,22.6503375 C53.5458468,23.1841603 54.199979,23.9890079 54.199979,25.4644021 C54.199979,27.1535229 52.842324,28.3673869 51.2773794,28.3673869 C50.6465009,28.3673869 50.2721843,28.2138917 49.6807378,27.8900922 C44.0721092,24.5270696 35.3685398,22.6751808 26.9511514,22.6751808 C22.749422,22.6751808 18.4819155,23.1024792 14.5729288,24.1632874 C14.1227158,24.2765906 13.5537433,24.5019711 12.9841331,24.5019711 C11.3311729,24.5019711 10.0628412,23.19427 10.0628412,21.5414496 C10.0628412,19.8575343 11.1064672,18.9122639 12.2322339,18.5796184 C16.6492645,17.2783406 21.5796909,16.671758 26.9393825,16.671758 L26.9393825,16.671758 Z M26.3077872,27.3186467 C34.418397,27.3186467 42.2645709,29.3386639 48.4332389,33.0304655 C49.4673936,33.6234694 49.8481171,34.3765173 49.8481171,35.4796975 C49.8481171,36.8214017 48.7799547,37.9053877 47.432886,37.9053877 C46.7605501,37.9053877 46.3376245,37.6337102 45.8807045,37.3679453 C40.8402676,34.3767558 33.8544153,32.3897208 26.2044828,32.3897208 C22.2809094,32.3897208 18.8942996,32.9391224 16.0911114,33.6856006 C15.4871633,33.8518166 15.1485787,34.0308204 14.58339,34.0308204 C13.2507391,34.0308204 12.1629284,32.9448593 12.1629284,31.6012052 C12.1629284,30.2835786 12.8019856,29.3763242 14.0904057,29.0133622 C17.573605,28.0567351 21.1305742,27.3186467 26.3077872,27.3186467 L26.3077872,27.3186467 Z M26.7327737,37.4372529 C33.5133055,37.4372529 39.5563261,38.9927464 44.7561248,42.1094871 C45.5300411,42.5613234 45.9840089,43.0230434 45.9840089,44.1690393 C45.9840089,45.2860785 45.075577,46.1069736 44.0565316,46.1069736 C43.5554252,46.1069736 43.2135526,45.9331376 42.7449579,45.6479902 C38.2541569,42.9310182 32.6547493,41.5027372 26.7118513,41.5027372 C23.3963405,41.5027372 20.0594056,41.9279475 16.9384691,42.5776261 C16.4309811,42.6876445 15.7923469,42.8836164 15.411133,42.8836164 C14.2344224,42.8836164 13.4496568,41.9489202 13.4496568,40.9365265 C13.4496568,39.6344828 14.2008939,38.98616 15.1352187,38.8076709 C18.9624029,37.9354783 22.7739318,37.4372529 26.7327737,37.4372529 L26.7327737,37.4372529 Z" id="path3101" fill="url(#radialGradient-1)"></path>
            </g>
        </g>
    </g>
</svg>